<?xml version="1.0" standalone="no"?>
<!DOCTYPE svg PUBLIC "-//W3C//DTD SVG 1.1//EN" "http://www.w3.org/Graphics/SVG/1.1/DTD/svg11.dtd">
<svg xmlns="http://www.w3.org/2000/svg">
<metadata>Copyright (C) 2015 by original authors @ fontello.com</metadata>
<defs>
<font id="fotografica" horiz-adv-x="1000" >
<font-face font-family="fotografica" font-weight="400" font-stretch="normal" units-per-em="1000" ascent="850" descent="-150" />
<missing-glyph horiz-adv-x="1000" />
<glyph glyph-name="chevron-down" unicode="&#xe800;" d="m500 107c-3 0-5 1-7 3l-450 466c-4 4-4 10 0 14 4 4 10 4 14 0l443-458 443 458c4 4 10 4 14 0 4-4 4-10 0-14l-450-466c-2-2-4-3-7-3z" horiz-adv-x="1000" />
<glyph glyph-name="chevron-next" unicode="&#xe801;" d="m267-110c-3 0-5 1-7 3-4 4-4 10 0 14l458 443-458 443c-4 4-4 10 0 14 4 4 10 4 14 0l466-450c2-2 3-4 3-7s-1-5-3-7l-466-450c-2-2-4-3-7-3z" horiz-adv-x="1000" />
<glyph glyph-name="chevron-prev" unicode="&#xe802;" d="m733-110c-3 0-5 1-7 3l-466 450c-2 2-3 4-3 7s1 5 3 7l466 450c4 4 10 4 14 0 4-4 4-10 0-14l-458-443 458-443c4-4 4-10 0-14-2-2-5-3-7-3z" horiz-adv-x="1000" />
<glyph glyph-name="close" unicode="&#xe803;" d="m957-93c4-4 4-10 0-14-2-2-4-3-7-3s-5 1-7 3l-443 443-443-443c-2-2-4-3-7-3s-5 1-7 3c-4 4-4 10 0 14l443 443-443 443c-4 4-4 10 0 14s10 4 14 0l443-443 443 443c4 4 10 4 14 0s4-10 0-14l-443-443 443-443z" horiz-adv-x="1000" />
<glyph glyph-name="logo-fotografica" unicode="&#xe804;" d="m303-100h-253l47 236v664h684v-252h-216v-216h-252v252h216v45h-261v-342h297v-171h-219l-43-216z m-209 36h179l43 216h213v99h-297v414h333v-81h180v180h-612l0-634-39-194z m255 432h180v180h-180v-180z m371-19h132v-32h-95v-56h90v-31h-90v-86h-37v205z m158-102c0 16 3 31 8 44 5 13 13 24 23 34 10 9 21 16 35 21 13 5 28 7 44 7 16 0 31-2 44-7 13-5 25-12 35-21 10-9 17-20 23-34 5-13 8-28 8-44 0-16-3-30-8-44-5-13-13-24-23-34-10-10-21-17-35-22-13-5-28-8-44-8-16 0-30 3-44 8-14 6-25 13-35 23-10 9-17 21-23 34-5 13-8 27-8 43z m40 0c0-11 2-21 5-30 3-9 8-17 14-24 6-7 14-12 22-16 9-4 18-6 28-6 10 0 20 2 28 6 9 4 16 9 22 16 6 7 11 15 14 24 3 9 5 19 5 30 0 11-2 20-5 29-3 9-8 17-14 24-6 7-14 12-22 16-9 4-18 6-29 6-11 0-20-2-29-6-9-4-16-9-22-16-6-7-11-15-14-24-2-8-3-18-3-29z m250 70h-63v32h161v-32h-63v-172h-36v172z m107-70c0 16 3 31 8 44 5 13 13 24 23 34 10 9 21 16 35 21 13 5 28 7 44 7 16 0 31-2 44-7 13-5 25-12 35-21 10-9 17-20 23-34 5-13 8-28 8-44 0-16-3-30-8-44-5-13-13-24-23-34-10-10-21-17-35-22-13-5-28-8-44-8-16 0-30 3-44 8-13 5-25 13-35 22-10 9-17 21-23 34-6 14-8 28-8 44z m39 0c0-11 2-21 5-30 3-9 8-17 14-24 6-7 14-12 22-16 9-4 18-6 28-6 10 0 20 2 29 6s16 9 22 16c6 7 11 15 14 24 3 9 5 19 5 30 0 11-2 20-5 29-3 9-8 17-14 24-6 7-14 12-22 16-9 4-18 6-29 6-11 0-20-2-29-6-9-4-16-9-22-16-6-7-11-15-14-24-2-8-4-18-4-29z m396-91c-10-5-22-9-34-12-12-3-27-4-43-4-17 0-32 3-45 8-14 5-25 13-35 22-10 9-17 21-23 34-5 13-8 28-8 44 0 16 3 31 9 44 6 13 13 24 23 34 10 9 22 16 35 21 13 5 28 7 44 7 16 0 31-2 45-7 14-5 24-11 33-19l-25-27c-5 6-12 11-22 15-9 4-19 6-30 6-11 0-20-2-29-6-9-4-16-9-22-16-6-7-11-15-14-24-3-9-5-19-5-29 0-11 2-21 5-30 3-9 8-17 14-24 6-7 14-12 23-16 9-4 19-6 30-6 16 0 29 2 41 7v52h-43v30h78v-104z m47 193h71c10 0 19-1 28-3s17-5 24-10c7-5 13-11 17-18 4-8 6-17 6-27 0-15-4-27-13-36-8-9-20-16-34-19l54-90h-44l-47 86h-26v-86h-36v203z m66-88c5 0 10 0 16 1 5 1 10 2 14 4 4 2 8 5 10 9 3 4 4 9 4 15 0 6-1 10-4 14-2 4-6 6-9 9-4 2-8 4-13 4-5 1-10 1-14 1h-33v-57h29z m182 88h31l88-204h-41l-19 47h-88l-18-47h-41l88 204z m46-126l-31 83-32-83h63z m-17 183h39l-41-41h-27l29 41z m114-57h132v-32h-95v-56h90v-31h-90v-86h-36v205z m168 0h36v-204h-36v204z m231-48c-5 7-12 13-21 16-9 3-17 5-25 5-11 0-20-2-29-6-9-4-16-9-22-16-6-7-11-15-14-24-3-9-5-19-5-29 0-11 2-21 5-31 3-9 8-17 14-24 6-7 13-12 22-15 8-4 18-5 28-5 11 0 21 2 29 6 8 4 15 10 20 17l29-20c-9-11-20-20-33-26-13-6-28-9-46-9-16 0-31 3-44 8-13 5-25 13-34 22-10 9-17 21-22 34-5 13-8 28-8 44 0 16 3 31 8 44 6 13 13 24 23 34 10 9 22 16 35 21 13 5 28 7 44 7 7 0 13-1 20-2s14-3 20-6c7-3 13-6 18-10 6-4 11-8 15-14l-27-21z m116 48h31l88-204h-41l-19 47h-88l-18-47h-41l88 204z m46-126l-31 83-32-83h63z m-1963-262c-26 0-42 21-42 48 0 32 19 53 48 53 4 0 9-1 13-2 2-1 5-2 6-2 2 0 2 1 2 3l6 0c0-6 2-17 3-26l-5-1c-3 13-10 21-27 21-20 0-35-18-35-43 0-28 15-44 34-44 14 0 24 7 32 19l5-3c-10-15-24-23-40-23z m77 0c-18 0-30 15-30 34 0 22 14 38 34 38 18 0 30-14 30-34 0-21-13-38-34-38z m2 66c-15 0-24-12-24-27 0-21 10-32 24-32 12 0 24 10 24 28 0 14-5 31-24 31z m60-63c-6 0-11 0-16-1v5c2 0 3 0 4 0 4 0 6 0 7 2 1 1 1 5 1 9 0 12 0 31 0 37 0 12 0 28 0 38 0 10-3 10-9 10-1 0-2 0-3 0v5c5 0 12 0 19 2l1-2c-1-5-1-13-1-52 0-8 0-22 0-38 0-5 0-7 1-9 1-1 2-2 6-2 1 0 2 0 5 0v-5c-4 1-9 1-15 1z m55-3c-19 0-29 14-29 34 0 23 13 38 32 38 14 0 23-9 23-25 0-4-1-6-5-6-9 0-16 0-42 0 0-2 0-4 0-5 0-18 10-29 24-29 7 0 16 4 21 13l5-3c-6-9-16-17-29-17z m-18 47c3 0 8 0 11 0 12 0 19 0 22 1 2 1 2 3 2 4 0 11-7 15-16 15-7 0-16-4-20-14 0-1-1-3-1-4 1-1 1-2 2-2z m84-47c-17 0-28 13-28 33 0 23 14 39 34 39 12 0 18-5 18-12 0-5-3-7-6-7s-5 2-5 4c-1 7-3 8-11 8-13 0-23-12-23-29 0-19 8-31 23-31 7 0 16 5 21 13l5-3c-6-9-17-15-28-15z m63 0c-17 0-28 13-28 33 0 23 14 39 34 39 12 0 18-5 18-12 0-5-3-7-6-7-3 0-5 2-5 4-1 7-3 8-10 8-13 0-23-12-23-29 0-19 8-31 23-31 7 0 16 5 21 13l5-3c-8-9-18-15-29-15z m52 3c-6 0-11 0-16-1v5c2 0 3 0 4 0 4 0 6 1 7 2 1 1 1 5 1 10 0 7 0 15 0 19 0 15 0 20-1 23 0 2-3 3-7 3-1 0-2 0-4 0v5c8 0 11 0 20 2l1-1c-1-10-1-24-1-32 0-4 0-14 0-20 0-5 0-8 1-10 1-1 3-2 6-2 1 0 2 0 5 0v-5c-4 2-10 2-16 2z m-2 88c-3 0-6 3-6 7 0 4 2 7 6 7 4 0 6-3 6-7 0-5-3-7-6-7z m58-91c-18 0-30 15-30 34 0 22 14 38 34 38 18 0 30-14 30-34 0-21-12-38-34-38z m3 66c-15 0-24-12-24-27 0-21 11-32 24-32 12 0 24 10 24 28 0 14-6 31-24 31z m60-63c-6 0-10 0-16-1v5c2 0 3 0 4 0 3 0 6 1 7 2 1 1 1 5 1 8 0 7 0 16 0 20 0 15 0 20-1 23 0 2-3 3-7 3-1 0-2 0-4 0v5c6 0 13 1 19 2l1-2c0-4-1-8-1-12 9 9 20 14 29 14 7 0 13-3 15-12 1-6 2-13 2-23v-20c0-5 0-8 1-9 1-1 3-2 6-2 1 0 2 0 5 0v-5c-4 0-10 1-16 1-6 0-10 0-15-1v5c2 0 3 0 4 0 4 0 6 1 7 2 1 2 2 7 2 16 0 21-1 29-4 34-2 4-6 5-11 5-7 0-16-4-20-11-3-4-3-9-3-14 0-4 0-16 0-22 0-5 0-8 1-9 1-1 3-2 6-2 1 0 2 0 5 0v-5c-6 5-11 5-17 5z m101-3c-19 0-29 14-29 34 0 23 13 38 32 38 14 0 23-9 23-25 0-4-1-6-5-6-9 0-16 0-42 0 0-2 0-4 0-5 0-18 10-29 24-29 7 0 16 4 21 13l5-3c-7-9-17-17-29-17z m-18 47c3 0 8 0 11 0 12 0 19 0 22 1 2 1 2 3 2 4 0 11-7 15-16 15-7 0-16-4-20-14 0-1-1-3-1-4 0-1 1-2 2-2z m100-27c0-11-8-20-25-20-13 0-21 6-21 13 0 4 2 5 5 5 3 0 4-1 5-4 1-5 5-9 13-9 12 0 16 6 16 12 0 7-3 10-12 14l-10 5c-9 4-13 8-13 17 0 10 9 19 24 19 12 0 17-5 17-11 0-4-2-4-5-4-2 0-4 1-4 4-1 4-5 6-10 6-9 0-15-4-15-12 0-6 3-8 11-12l9-4c12-6 15-12 15-19z m60-17c-6 0-11 0-16-1v5c2 0 3 0 4 0 4 0 6 0 6 2 1 1 1 5 1 9 0 12 0 30 0 35 0 11 0 27 0 31 0 4 0 7-1 8-1 1-3 2-6 2-1 0-3 0-5 0v5c5 0 13-1 19-1 19 0 30 0 48 0 0-6 1-15 2-22l-5 0c-2 11-4 13-6 14-3 2-6 2-23 2-3 0-8 0-11 0-2 0-3-1-3-3-1-4-1-18-1-32 0-2 1-2 1-3 1 0 3-1 11-1 15 0 17 1 19 3 1 2 2 5 2 9h5c0-4 0-10 0-15s0-12 0-15h-4c0 6-2 9-3 10-2 2-5 3-18 3-8 0-10 0-11-1-1 0-1-2-1-3 0-14 0-22 0-27 0-5 1-7 2-9 1-1 3-2 6-2 1 0 3 0 6 0v-5c-4 2-12 2-18 2z m87-3c-18 0-30 15-30 34 0 22 14 38 34 38 18 0 30-14 30-34 1-21-12-38-34-38z m3 66c-15 0-24-12-24-27 0-21 10-32 24-32 12 0 24 10 24 28 0 14-6 31-24 31z m66-65c-6 0-9 2-10 6-2 3-2 7-2 14 0 14 0 27 0 43-2 0-7 0-10 0v5c4 0 7 2 8 3 2 2 4 6 6 15h4c0-11 0-6 0-17 8 0 14 0 17 0v-6c-4 0-7 0-18 0 0-24 0-30 0-34 0-5 0-12 1-15 1-6 3-8 8-8 2 0 5 1 9 2l2-5c-5-1-10-3-15-3z m53-1c-18 0-30 15-30 34 0 22 14 38 34 38 18 0 30-14 30-34 0-21-13-38-34-38z m2 66c-15 0-24-12-24-27 0-21 11-32 24-32 12 0 24 10 24 28 0 14-5 31-24 31z m43-50c0 5 2 10 12 15-4 3-7 10-7 17 0 14 11 25 26 25 7 0 13-2 17-7 1 6 5 11 11 11 4 0 6-1 6-4 0-3-1-4-4-4-2 0-3 1-5 1-2 0-3-2-3-6 0-2 0-4 1-6 1-2 1-5 1-8 0-15-12-25-25-25-4 0-8 1-11 2-1 0-2 0-2 0-1 0-2 0-3-1-3-2-5-5-5-9 0-5 3-7 13-7 7 0 19 0 23 0 12 0 19-5 19-15 0-18-17-30-38-30-16 0-26 8-26 18 0 7 5 14 16 20-13 2-16 8-16 13z m37-12c-3 0-8 0-10 0-5-1-9-2-12-5-5-4-8-8-8-13 0-9 9-13 21-13 15 0 27 8 27 19 0 7-2 12-18 12z m-6 63c-11 0-17-7-17-17 0-14 7-20 16-20 11 0 17 6 17 17 0 11-5 20-16 20z m55-64c-6 0-11 0-14-1v5c2 0 3 0 4 0 4 0 6 1 7 2 1 1 1 4 1 8 0 7 0 16 0 20 0 15 0 20-1 23 0 2-2 3-7 3-1 0-2 0-4 0v5c8 0 13 1 18 2l2-2c0-5-1-9-1-14 7 11 16 15 22 15 4 0 7-2 7-6 0-4-2-7-6-7-1 0-3 0-4 2-1 1-2 1-3 1-3 0-10-4-13-12-1-3-3-8-3-13 0-4 0-14 0-20 0-5 1-8 1-9 1-1 3-2 6-2 1 0 4 0 6 0v-5c-6 5-12 5-18 5z m57-2c-10 0-19 7-19 19 0 8 5 12 13 15 7 2 15 3 24 5 6 1 7 2 7 8 0 13-4 19-16 19-5 0-8-1-10-3-2-1-3-4-3-7 0-3-2-4-5-4-3 0-4 2-4 5 0 8 10 15 26 15 10 0 19-4 19-19 0-6-1-23-1-34 0-11 2-13 6-13 2 0 4 1 6 1l2-5c-3-1-7-3-11-3-6 0-10 1-11 10-8-6-15-9-23-9z m21 34c-5 0-17-3-23-5-5-2-9-5-9-10 0-8 7-12 14-12 5 0 13 3 16 6 4 4 5 8 5 17 0 4-1 4-3 4z m7 68c-6-7-14-15-22-23l-3 2c5 8 12 19 15 26l10-5z m40-100c-6 0-9 0-15-1v5c2 0 3 0 4 0 4 0 6 1 7 2 1 1 1 4 1 8 0 12 0 31 0 47-3 0-7 0-10 0v5c3 0 6 0 7 0 2 1 3 1 4 8 1 8 3 14 7 19 5 7 14 12 25 12 15 0 18-7 18-12 0-4-3-6-6-6-3 0-5 1-6 4 0 4-1 8-10 8-8 0-15-5-17-10-3-6-4-13-5-23 32 0 36 0 43 3l1-1c-1-10-1-24-1-32 0-4 0-14 0-20 0-5 0-8 1-10 1-1 3-2 6-2 1 0 2 0 5 0v-5c-3 0-9 1-15 1-6 0-11 0-16-1v5c2 0 3 0 4 0 4 0 6 1 7 2 1 1 1 5 1 10 0 7 0 15 0 19 0 15 0 20-1 23-1 2-3 3-8 3-9 0-17 0-27 0 0-6 0-12 0-18 0-10 0-18 0-29 0-5 0-7 1-9 1-1 4-2 7-2 1 0 4 0 6 0v-5c-3 2-12 2-18 2z m99-3c-17 0-28 13-28 33 0 23 14 39 34 39 12 0 18-5 18-12 0-5-3-7-6-7-3 0-5 2-5 4-1 7-3 8-10 8-13 0-23-12-23-29 0-19 8-31 23-31 7 0 16 5 21 13l5-3c-7-9-18-15-29-15z m53 1c-10 0-19 7-19 19 0 8 5 12 13 15 7 2 15 3 24 5 6 1 7 2 7 8 0 13-4 19-16 19-5 0-8-1-10-3-2-1-3-4-3-7 0-3-2-4-5-4-3 0-4 2-4 5 0 8 10 15 26 15 10 0 19-4 19-19 0-6-1-23-1-34 0-11 2-13 6-13 2 0 4 1 6 1l2-5c-3-1-7-3-11-3-6 0-10 1-11 10-8-6-16-9-23-9z m21 34c-5 0-17-3-23-5-5-2-9-5-9-10 0-8 7-12 14-12 5 0 13 3 16 6 4 4 5 8 5 17 0 4-2 4-3 4z m76-15c0-11-8-20-25-20-13 0-21 6-21 13 0 4 2 5 5 5 3 0 4-1 5-4 1-5 5-9 13-9 12 0 16 6 16 12 0 7-3 10-12 14l-10 5c-9 4-13 8-13 17 0 10 9 19 24 19 12 0 17-5 17-11 0-4-2-4-5-4s-4 1-4 4c-1 4-5 6-10 6-9 0-15-4-15-12 0-6 3-8 11-12l9-4c12-6 15-12 15-19z m98-19l-1 2c0 3 1 7 1 12-8-9-16-14-26-14-15 0-27 11-27 32 0 27 17 40 35 40 7 0 13-1 19-4 0 9 0 18-1 27 0 6-3 6-9 6-1 0-2 0-3 0v5c5 0 12 0 19 2l1-2c-1-5-1-17-1-51 0-4 0-24 0-36 0-12 1-14 7-14 2 0 4 0 6 0v-5c-8 2-13 2-20 0z m-3 58c-3 5-9 8-16 8-15 0-27-14-27-31 0-19 10-28 22-28 7 0 15 4 19 10 3 5 4 12 4 25 0 8 0 12-2 16z m62-59c-19 0-29 14-29 34 0 23 13 38 32 38 14 0 23-9 23-25 0-4-1-6-5-6-9 0-16 0-42 0 0-2 0-4 0-5 0-18 10-29 24-29 7 0 16 4 21 13l5-3c-6-9-16-17-29-17z m-18 47c3 0 8 0 11 0 12 0 19 0 22 1 2 1 2 3 2 4 0 11-7 15-16 15-7 0-16-4-20-14 0-1-1-3-1-4 1-1 1-2 2-2z m105-44c-6 0-11 0-16-1v5c2 0 3 0 4 0 4 0 6 0 6 2 1 1 1 5 1 9 0 12 0 30 0 35 0 11 0 27 0 31 0 4 0 7-1 8-1 1-3 2-6 2-1 0-3 0-5 0v5c5 0 13-1 19-1 19 0 30 0 48 0 0-6 1-15 2-22l-5 0c-2 11-4 13-6 14-3 2-6 2-23 2-3 0-8 0-11 0-2 0-3-1-3-3-1-4-1-18-1-32 0-2 1-2 1-3 1 0 3-1 11-1 15 0 17 1 19 3 1 2 2 5 2 9h5c0-4 0-10 0-15s0-12 0-15h-5c0 6-2 9-3 10-2 2-5 3-18 3-8 0-10 0-11-1-1 0-1-2-1-3 0-14 0-22 0-27 0-5 1-7 2-9 1-1 3-2 6-2 1 0 3 0 6 0v-5c-3 2-11 2-17 2z m118-2l-1 1c0 3 0 8 1 11-9-8-18-12-26-12-12 0-20 5-20 24 0 7 1 22 1 30 0 5 0 7-1 8-1 1-2 2-6 2-1 0-3 0-5 0v5c6 0 15 1 19 2l1-2c-1-9-2-22-2-40 0-8 1-15 3-18 3-4 8-5 13-5 7 0 16 4 20 12 2 4 3 9 3 14 0 4 0 16 0 21 0 5 0 7-1 8-1 1-3 2-6 2-1 0-3 0-4 0v5c6 0 15 1 19 2l1-1c-1-9-2-20-2-37 0-15 0-20 1-22 1-2 1-3 5-3 1 0 4 0 6 0v-5c-5 0-12-1-19-2z m46 2c-6 0-10 0-16-1v5c2 0 3 0 4 0 3 0 6 1 7 2 1 1 1 5 1 8 0 7 0 16 0 20 0 15 0 20-1 23 0 2-3 3-7 3-1 0-2 0-4 0v5c6 0 13 1 19 2l1-2c0-4-1-8-1-12 9 9 20 14 29 14 7 0 13-3 15-12 1-6 2-13 2-23v-20c0-5 0-8 1-9 1-1 3-2 6-2 1 0 2 0 5 0v-5c-4 0-10 1-16 1-6 0-10 0-15-1v5c2 0 3 0 4 0 4 0 6 1 7 2 1 2 2 7 2 16 0 21-1 29-4 34-2 4-6 5-11 5-7 0-16-4-20-11-3-4-3-9-3-14 0-4 0-16 0-22 0-5 0-8 1-9 1-1 3-2 6-2 1 0 2 0 5 0v-5c-6 5-11 5-17 5z m126-2l-1 2c0 3 1 7 1 12-8-9-16-14-26-14-15 0-27 11-27 32 0 27 17 40 35 40 7 0 13-1 19-4 0 9 0 18-1 27 0 6-3 6-8 6-1 0-2 0-3 0v5c5 0 12 0 19 2l1-2c-1-5-1-17-1-51 0-4 0-24 0-36 0-12 1-14 7-14 2 0 4 0 6 0v-5c-9 2-14 2-21 0z m-3 58c-3 5-9 8-16 8-15 0-27-14-27-31 0-19 10-28 22-28 7 0 15 4 19 10 3 5 4 12 4 25 0 8 0 12-2 16z m51-58c-10 0-19 7-19 19 0 8 5 12 13 15 7 2 15 3 24 5 6 1 7 2 7 8 0 13-4 19-16 19-5 0-8-1-10-3-2-1-3-4-3-7 0-3-2-4-5-4-3 0-4 2-4 5 0 8 10 15 26 15 10 0 19-4 19-19 0-6-1-23-1-34 0-11 2-13 6-13 2 0 4 1 6 1l2-5c-3-1-7-3-11-3-6 0-10 1-11 10-8-6-16-9-23-9z m21 34c-5 0-17-3-23-5-5-2-9-5-9-10 0-8 7-12 14-12 5 0 13 3 16 6 4 4 5 8 5 17-1 4-2 4-3 4z m60-35c-17 0-28 13-28 33 0 23 14 39 34 39 12 0 18-5 18-12 0-5-3-7-6-7s-5 2-5 4c-1 7-3 8-10 8-13 0-23-12-23-29 0-19 8-31 23-31 7 0 16 5 21 13l5-3c-7-9-18-15-29-15z m52 3c-6 0-11 0-16-1v5c2 0 3 0 4 0 4 0 6 1 7 2 1 1 1 5 1 10 0 7 0 15 0 19 0 15 0 20-1 23 0 2-3 3-7 3-1 0-2 0-4 0v5c8 0 11 0 20 2l1-1c-1-10-1-24-1-32 0-4 0-14 0-20 0-5 0-8 1-10 1-1 3-2 6-2 1 0 2 0 5 0v-5c-4 2-10 2-16 2z m-2 88c-3 0-6 3-6 7 0 4 2 7 6 7 4 0 6-3 6-7 1-5-2-7-6-7z m59-91c-18 0-30 15-30 34 0 22 14 38 34 38 18 0 30-14 30-34 0-21-13-38-34-38z m2 66c-15 0-24-12-24-27 0-21 11-32 24-32 12 0 24 10 24 28 0 14-5 31-24 31z m16 37c-6-7-14-15-22-23l-3 2c5 8 12 19 15 26l10-5z m44-100c-6 0-10 0-16-1v5c2 0 3 0 4 0 3 0 6 1 7 2 1 1 1 5 1 8 0 7 0 16 0 20 0 15 0 20-1 23 0 2-3 3-7 3-1 0-2 0-4 0v5c6 0 13 1 19 2l1-2c0-4-1-8-1-12 9 9 20 14 29 14 7 0 13-3 15-12 1-6 2-13 2-23v-20c0-5 0-8 1-9 1-1 3-2 6-2 1 0 2 0 5 0v-5c-4 0-10 1-16 1-6 0-10 0-15-1v5c2 0 3 0 4 0 4 0 6 1 7 2 1 2 2 7 2 16 0 21-1 29-4 34-2 4-6 5-11 5-7 0-16-4-20-11-3-4-3-9-3-14 0-4 0-16 0-22 0-5 0-8 1-9 1-1 3-2 6-2 1 0 2 0 5 0v-5c-6 5-11 5-17 5z m141 0c-6 0-12 0-16-1v5c2 0 4 0 6 0 3 0 5 1 6 2 1 1 1 4 1 9 0 11 0 22 0 36 0 18 0 28 0 34 0 3 0 4-1 5-1 1-3 1-9 1-15 0-18-2-21-18l-5 1c1 8 2 16 2 23 7 0 15-1 37-1 14 0 32 0 40 1 0-8 1-14 1-23l-5-1c-2 16-4 17-21 17-6 0-9 0-9-1-1-1-1-2-1-5 0-6 0-22 0-34 0-5 0-24 0-36 0-4 0-7 1-9 1-1 2-2 7-2 1 0 3 0 5 0v-5c-5 2-12 2-18 2z m72-3c-19 0-29 14-29 34 0 23 13 38 32 38 14 0 23-9 23-25 0-4-1-6-5-6-9 0-16 0-42 0 0-2 0-4 0-5 0-18 10-29 24-29 7 0 16 4 21 13l5-3c-7-9-16-17-29-17z m-18 47c3 0 8 0 11 0 12 0 19 0 22 1 2 1 2 3 2 4 0 11-7 15-16 15-7 0-16-4-20-14 0-1-1-3-1-4 0-1 1-2 2-2z m71-44c-6 0-11 0-16-1v5c2 0 3 0 4 0 4 0 6 0 7 2 1 1 1 5 1 9 0 12 0 31 0 37 0 12 0 28 0 38 0 10-3 10-9 10-1 0-2 0-3 0v5c5 0 12 0 19 2l1-2c-1-5-1-13-1-52 0-8 0-22 0-38 0-5 0-7 1-9 1-1 2-2 6-2 1 0 2 0 5 0v-5c-4 1-9 1-15 1z m55-3c-19 0-29 14-29 34 0 23 13 38 32 38 14 0 23-9 23-25 0-4-1-6-5-6-9 0-16 0-42 0 0-2 0-4 0-5 0-18 10-29 24-29 7 0 16 4 21 13l5-3c-6-9-16-17-29-17z m-18 47c3 0 8 0 11 0 12 0 19 0 22 1 2 1 2 3 2 4 0 11-7 15-16 15-7 0-16-4-20-14 0-1-1-3-1-4 1-1 1-2 2-2z m81-45c-5 15-11 31-21 55-3 8-5 9-9 9-1 0-1 0-3 0v5c6 0 10-1 16-1 5 0 8 0 13 1v-5c-1 0-3 0-4 0-5 0-7-1-7-4 0-2 1-6 5-16 5-14 9-22 13-32 6 16 12 27 15 35 3 9 4 11 4 13 0 3-2 4-6 4-1 0-2 0-4 0v5c6 0 9-1 14-1 4 0 10 0 14 1v-5c-1 0-2 0-3 0-2 0-5-1-8-9-8-17-16-36-23-55h-6z m61 1c-6 0-11 0-16-1v5c2 0 3 0 4 0 4 0 6 1 7 2 1 1 1 5 1 10 0 7 0 15 0 19 0 15 0 20-1 23 0 2-3 3-7 3-1 0-2 0-4 0v5c8 0 11 0 20 2l1-1c-1-10-1-24-1-32 0-4 0-14 0-20 0-5 0-8 1-10 1-1 3-2 6-2 1 0 2 0 5 0v-5c-4 2-10 2-16 2z m-2 88c-3 0-6 3-6 7 0 4 2 7 6 7 4 0 6-3 6-7 1-5-2-7-6-7z m73-71c0-11-8-20-25-20-13 0-21 6-21 13 0 4 2 5 5 5 3 0 4-1 5-4 1-5 5-9 13-9 12 0 16 6 16 12 0 7-3 10-12 14l-10 5c-9 4-13 8-13 17 0 10 9 19 24 19 12 0 17-5 17-11 0-4-2-4-5-4-2 0-4 1-4 4-1 4-5 6-10 6-9 0-15-4-15-12 0-6 3-8 11-12l9-4c12-6 15-12 15-19z m29-19c-10 0-19 7-19 19 0 8 5 12 13 15 7 2 15 3 24 5 6 1 7 2 7 8 0 13-4 19-16 19-5 0-8-1-10-3-2-1-3-4-3-7 0-3-2-4-5-4-3 0-4 2-4 5 0 8 10 15 26 15 10 0 19-4 19-19 0-6-1-23-1-34 0-11 2-13 6-13 2 0 4 1 6 1l2-5c-3-1-7-3-11-3-6 0-10 1-11 10-8-6-16-9-23-9z m21 34c-5 0-17-3-23-5-5-2-9-5-9-10 0-8 7-12 14-12 5 0 13 3 16 6 4 4 5 8 5 17 0 4-2 4-3 4z" horiz-adv-x="3660" />
<glyph glyph-name="e-mail" unicode="&#xe805;" d="m492 635c-156 0-283-127-283-284 0-157 128-284 285-284 50 0 102 13 144 38 5 3 6 9 4 14-3 5-9 6-14 4-39-23-87-35-134-35-146 0-265 118-265 264 0 146 118 264 263 264 96 0 175-29 227-83 42-44 67-105 67-167 0-70-32-140-95-140-17 0-28 4-35 11-9 9-7 23-7 35v78c0 0-2 0-2 0 0 0-1 0-1 0l0 117c0 6-3 10-9 10-6 0-9-4-9-10v-44c-30 44-74 73-128 73-81 0-148-66-148-147s67-147 148-147c54 0 98 30 128 73v-5l-2-3c0-13-1-34 14-49 11-11 27-17 50-17 66 0 114 67 114 160 0 67-26 133-73 181-53 62-137 93-239 93z m8-411c-70 0-127 57-127 127 0 70 57 127 127 127 70 0 127-57 127-127 0-70-57-127-127-127z m434 406h16c6 0 10 9 10 15v108c0 27-30 57-57 57h-108c-6 0-15-4-15-10v-16c0-27-23-52-50-52-27 0-50 25-50 52v16c0 6-4 10-9 10h-109c-5 0-12-4-12-10v-16c0-27-23-52-50-52s-50 25-50 52v16c0 6-7 10-12 10h-109c-5 0-9-4-9-10v-16c0-27-23-52-50-52-27 0-50 25-50 52v16c0 6-9 10-15 10h-108c-27 0-57-30-57-57v-109c0-3 1-5 3-7 2-2 5-3 7-3l15 1c27 0 52-26 52-52s-25-53-51-53h-16c-6 0-10-4-10-9v-109c0-5 4-12 10-12h16c27 0 53-23 53-49 0-27-26-51-53-51h-16c-6 0-10-7-10-12v-109c0-5 4-9 10-9h16c27 0 52-23 52-50s-25-50-52-50h-16c-6 0-10-9-10-15v-109c0-26 30-56 57-56h109c6 0 15 4 15 10v16c0 27 23 52 50 52 27 0 50-25 50-52v-16c0-6 4-10 9-10h109c6 0 12 4 12 10v16c0 27 23 52 50 52s50-25 50-52v-16c0-6 7-10 12-10h109c6 0 9 4 9 10v16c0 27 23 52 50 52 27 0 50-25 50-52v-16c0-6 9-10 15-10h109c27 0 57 30 57 57v108c0 6-4 15-10 15h-16c-27 0-52 23-52 50s25 50 52 50h14c6 0 10 4 10 9v109c0 6-4 12-10 12h-16c-27 0-52 23-52 50s25 50 52 50h16c6 0 10 7 10 12v109c0 6-4 9-10 9h-16c-27 0-52 23-52 50s26 50 52 50z m-72-50c0-38 34-70 72-70h6v-90h-6c-38 0-72-32-72-70s34-70 72-70h6v-90h-6c-38 0-72-32-72-70s34-70 72-70h6v-103c0-16-20-37-37-37h-103v6c0 38-32 72-70 72s-70-34-70-72v-6h-90v6c0 38-32 72-70 72s-70-34-70-72v-6h-90v6c0 38-32 72-70 72s-70-34-70-72v-6h-103c-17 0-37 20-37 37v103h6c38 0 72 32 72 70s-34 70-72 70h-6v90h6c38 0 73 33 73 71 0 37-35 69-73 69h-6v90h6c38 0 72 32 72 70 0 38-34 70-72 70 0 0 0 0 0 0l-6 5v98c0 17 20 37 37 37h103v-6c0-38 32-72 70-72s70 34 70 72v6h90v-6c0-38 32-72 70-72s70 34 70 72v6h90v-6c0-38 32-72 70-72s70 34 70 72v6h103c17 0 37-20 37-37v-103h-6c-37 0-72-32-72-70z" horiz-adv-x="1000" />
<glyph glyph-name="facebook" unicode="&#xe806;" d="m470 606v-206h170v-20h-170v-490h-20v490h-150v20h150v206c0 25 4 84 50 130 40 40 110 61 200 61v-20c-90 0-149-19-185-55-41-40-45-93-45-116z" horiz-adv-x="1000" />
<glyph glyph-name="fotografica" unicode="&#xe807;" d="m390-100h-256l47 237v663h685v-255h-215v-215h-255v255h215v40h-255v-335h295v-175h-218l-43-215z m-207 40h174l43 215h211v94h-296v417h336v-81h174v175h-603l0-628-39-192z m253 430h174v175h-174v-175z" horiz-adv-x="1000" />
<glyph glyph-name="heart" unicode="&#xe808;" d="m500-129c-2 0-4 1-6 2-1 1-115 76-227 195-103 109-227 279-227 465 0 202 121 293 234 293 120 0 197-92 226-196 30 105 108 199 232 199 60 0 116-25 158-69 46-49 70-119 70-201 0-96-39-255-227-469-112-128-226-216-227-217-2-1-4-2-6-2z m-226 935c-103 0-214-85-214-273 0-323 387-603 440-640 52 42 440 365 440 666 0 172-108 250-208 250-129 0-205-114-222-226-1-5-5-8-10-8s-9 4-10 8c-17 111-91 223-216 223z" horiz-adv-x="1000" />
<glyph glyph-name="menu" unicode="&#xe809;" d="m960 572h-920v20h920v-20z m0-212h-920v-20h920v20z m0-232h-920v-20h920v20z" horiz-adv-x="1000" />
<glyph glyph-name="pinterest" unicode="&#xe80a;" d="m348-112l-79 29 0 7c-2 50 1 94 10 130 10 42 63 269 71 299-5 10-17 43-17 89 0 86 51 154 117 154 52 0 85-37 85-93 0-34-13-77-27-122-8-25-16-51-22-77-6-24-1-47 13-65 15-19 38-30 65-30 94 0 166 122 166 285 0 123-87 202-221 202-127 0-263-90-263-256 0-42 11-75 34-102 12-14 15-22 10-40l-4-16c-3-11-6-23-7-29-4-14-15-23-28-23-4 0-9 1-13 3-75 31-120 113-120 221 0 86 37 174 102 239 52 53 147 117 303 117 102 0 195-35 262-100 63-61 99-144 99-228 0-226-130-390-309-390-51 0-103 23-131 55-10-37-29-112-34-131-10-37-29-78-57-122l-5-6z m-59 43l51-19c24 39 41 77 50 109 7 24 39 151 39 152l6 25 12-23c16-31 68-64 127-64 170 0 289 152 289 370 0 153-127 309-340 309-149 0-240-60-290-111-61-62-96-144-96-225 0-99 40-175 107-203 7-3 12-1 14 7 2 6 5 18 7 29l4 16c3 10 3 12-6 22-26 31-39 69-39 115 0 73 27 141 76 192 52 54 125 83 207 83 146 0 241-87 241-222 0-174-80-305-186-305-32 0-62 14-80 37-18 23-24 52-17 82 6 26 14 52 22 78 14 44 26 86 26 117 0 35-17 73-65 73-54 0-97-59-97-134 0-49 17-83 17-83l2-3 0-4c0 0-61-257-71-302-9-33-12-73-10-118z" horiz-adv-x="1000" />
<glyph glyph-name="play" unicode="&#xe80b;" d="m50-110c-2 0-4 1-5 1-3 2-5 6-5 9v900c0 3 2 7 5 9 3 2 7 2 10 0l900-450c3-2 6-5 6-9s-2-7-6-9l-900-450c-2-1-3-1-5-1z m10 894v-868l868 434-868 434z" horiz-adv-x="1000" />
<glyph glyph-name="search" unicode="&#xe80c;" d="m959-94l-364 363c54 57 87 134 87 219 0 177-144 320-320 320-177 0-320-144-320-320 0-177 144-320 320-320 85 0 162 33 219 87l363-363 15 14z m-597 282c-166 0-300 135-300 300s135 300 300 300 300-135 300-300-135-300-300-300z" horiz-adv-x="1000" />
<glyph glyph-name="share" unicode="&#xe80d;" d="m830-110h-670c-6 0-10 4-10 10v680c0 6 4 10 10 10h280c6 0 10-4 10-10s-4-10-10-10h-270v-660h650v660h-260c-6 0-10 4-10 10s4 10 10 10h270c6 0 10-4 10-10v-680c0-6-4-10-10-10z m-310 564v348c0 6-4 10-10 10s-10-4-10-10v-348c0-6 4-10 10-10s10 5 10 10z m149 185c4 4 4 10 0 14l-156 157c-4 4-10 4-14 0l-157-156c-4-4-4-10 0-14s10-4 14 0l150 148 149-149c2-2 5-3 7-3s5 1 7 3z" horiz-adv-x="1000" />
<glyph glyph-name="tags" unicode="&#xe80e;" d="m38 719v-278l558-553 288 288-553 543h-293z m558-803l-538 533v250h265l532-523-259-260z m366 374l-54-54-14 14 39 39-501 503h-260v20h268l522-522z m-738 326c-38 0-69-31-69-69 0-38 31-69 69-69 38 0 69 31 69 69 0 39-31 69-69 69z m0-117c-27 0-49 22-49 49 0 27 22 49 49 49 27 0 49-22 49-49 0-27-22-49-49-49z" horiz-adv-x="1000" />
<glyph glyph-name="twitter" unicode="&#xe80f;" d="m333-26c-102 0-202 29-288 85l-36 23 43-5c88-10 174 11 245 59-72 11-132 62-155 133l-5 16 17-3c12-2 25-3 38-3-70 31-116 100-116 177v19l15-8c14-8 29-14 45-17-37 36-58 86-58 139 0 34 9 68 26 98l7 12 9-11c89-110 220-178 361-188-2 10-2 21-2 31 0 107 87 195 195 195 52 0 102-21 138-57 38 8 75 22 109 43l23 13-8-25c-10-31-28-60-52-82 22 5 43 12 63 21l32 14-19-29c-25-37-55-69-90-95 0-6 0-13 0-19 0-130-50-262-138-361-72-80-198-175-399-175z m-242 81c74-40 157-61 242-61 253 0 515 193 515 516 0 8 0 16-1 23l0 5 4 3c26 19 49 41 69 66-25-8-50-14-76-17l-46-6 40 24c29 17 52 42 66 71-30-15-62-26-95-32l-5-1-4 4c-33 35-79 55-127 55-96 0-175-78-175-175 0-14 2-27 4-40l3-13-13 1c-145 9-282 76-377 186-11-23-17-49-17-75 0-59 29-113 78-145l29-19-35 1c-25 1-50 7-73 17 6-77 63-142 140-157l41-8-41-11c-23-6-47-8-71-6 27-63 88-105 157-106l28-1-21-18c-69-54-152-82-239-81z" horiz-adv-x="1000" />
<glyph glyph-name="logo-fundacion-televisa" unicode="&#xe810;" d="m381 620h-110c-11-10-21-20-30-30h121c5 10 12 20 19 30z m-29-50h-126c-9-10-15-20-19-40h134c2 20 6 30 11 40z m320-50h136c0-10 1-9 1-12 0-9-1-18-4-28h-135c2 10 2 18 2 28 1 4 1 2 0 12z m-2 10h134c-4 20-10 30-19 40h-126c5-10 9-20 11-40z m-64 110h101c-10 0-20 10-31 20h-98c10-10 19-10 28-20z m-101 55c-38 0-73-5-105-15h211c-32 10-67 15-106 15z m144-105h121c-9 10-19 20-30 30h-110c7-10 13-20 19-30z m-216 70h-99c-11-10-21-20-31-20h102c9 10 19 10 28 20z m210-250c-15-20-34-40-56-50h99c10 0 20 10 29 16 17 11 32 24 46 34h-118z m-70-60c-21-10-44-15-68-15-24 0-47 5-68 15h-99c47-20 103-38 166-38 64 0 120 18 167 38h-98z m-362 110c6-10 16-30 28-40h122c-7 10-14 30-17 40h-133z m589 0h-132c-4-10-10-30-17-40h121c12 10 22 30 28 40z m-474-100h99c-22 10-42 30-56 50h-118c13-10 29-23 46-34 9-6 19-16 29-16z m14 120c-1 10-2 18-2 28 0 4 0 2 1 12h-136c-1-10-1-9-1-12 0-9 1-18 4-28h134z m391-201h-33v-24h33v24z m-33-121h33v88h-33v-88z m-339 0v61c0 20-14 30-30 30-14 0-23-5-29-14h0v11h-32v-88h33v47c0 14 8 17 14 17 10 0 11-7 11-17v-47h33z m215 19v36c0 17 0 35-42 35-21 0-45-5-46-29h31c0 4 2 9 13 9 6 0 11-2 11-8 0-6-5-7-9-8-17-3-50-2-50-30 0-18 14-27 31-27 11 0 21 2 28 10h0c0-3 0-6 1-8h34c-1 6-2 14-2 20z m-32 12c-1-9-6-14-14-14-6 0-11 4-11 8 0 6 4 8 11 9 5 1 9 2 14 4v-7z m182-130c-11 4-24 4-29 7-2 1-4 2-4 4 0 6 5 6 10 6 3 0 5-1 7-2 2-2 4-4 4-7h30c-1 22-23 27-42 27-17 0-41-6-41-28 0-15 10-22 35-27 15-3 18-4 18-9 0-5-7-7-11-7-4 0-7 1-9 3-3 2-4 4-4 8h-32c0-22 23-31 43-31 21 0 44 7 44 31 2 15-8 21-19 25z m-115-53h33v87h-33v-87z m0 98h33v23h-33v-23z m74 89h-33c0-7-6-13-13-13-13 0-15 11-15 22 0 11 2 22 15 22 3 0 6-1 8-3 2-2 3-5 4-8h32c-2 24-22 36-45 36-27 0-48-19-48-47 0-28 21-46 48-46 25-1 43 13 47 37z m165-167v35c0 17 0 34-41 34-21 0-44-4-45-28h31c0 4 2 9 12 9 5 0 11-2 11-8 0-5-4-7-9-7-17-3-49-2-49-29 0-19 14-26 31-26 10 0 21 2 28 11h0c0-3 0-6 1-9h34c-4 4-4 11-4 18z m-32 11c0-9-6-14-14-14-6 0-10 4-10 8 0 6 4 8 11 9 4 1 9 2 13 4v-7z m-21 211c-33 0-48-22-48-46 0-25 15-47 48-47 33 0 48 22 48 47 0 24-15 46-48 46z m0-68c-13 0-15 12-15 22 0 9 2 22 15 22 13 0 15-12 15-22 0-10-2-22-15-22z m125 68c-14 0-23-5-29-14h0v11h-32v-88h34v47c0 14 8 17 14 17 10 0 11-7 11-17v-47h32v61c0 20-15 30-30 30z m-372-208l0 0-14 53h-34l28-87h39l29 87h-33l-15-53z m286 121c0 0 0 0 0 0 1 0 1 0 0 0 1 0 1 0 0 0 0 0 0 0 0 0z m-784-3h37v47h49v29h-49v15h57v31h-94v-122z m398-133c-10 0-16 7-17 17h63c0 34-15 53-49 53-28 0-46-20-46-46 0-29 21-45 48-45 20 0 38 8 45 27h-31c-2-4-8-6-13-6z m0 49c9 0 15-7 15-14h-31c1 9 6 14 16 14z m-196 53h-104v-29h33v-92h37v92h33v29z m-65 28c14 0 23 5 29 14h0v-11h32v88h-34v-47c0-14-8-17-14-17-10 0-11 7-11 17v46h-33v-61c1-19 15-29 31-29z m249 124v-43h-1c-5 8-14 12-24 12-30 0-38-25-38-46 0-22 12-47 37-47 17 0 22 6 26 12h0v-10h34v122h-34z m-13-99c-13 0-15 11-15 22 0 10 3 22 15 22 12 0 15-11 15-22-1-11-3-22-15-22z m-73-174h33v121h-33v-121z m-63 19c-10 0-16 7-17 17h63c0 34-15 53-49 53-27 0-46-20-46-46 0-29 21-45 48-45 20 0 38 8 45 27h-31c-2-4-8-6-13-6z m0 49c8 0 15-7 15-14h-32c2 9 7 14 17 14z m543 206h-35l-17-25h23l29 25z" horiz-adv-x="1000" />
<glyph glyph-name="newsletter" unicode="&#xe811;" d="m956-17h-900c-6 0-10 4-10 10v714c0 6 4 10 10 10h900c6 0 10-4 10-10v-714c0-5-5-10-10-10z m-890 20h880v694h-880v-694z m796 446h-713c-6 0-10 4-10 10v155c0 6 4 10 10 10h714c6 0 10-4 10-10v-155c-1-6-5-10-11-10z m-703 20h694v135h-694v-135z m310-135c0 6-4 10-10 10h-248c-6 0-10-4-10-10s4-10 10-10h248c6 0 10 5 10 10z m0-62c0 6-4 10-10 10h-279c-6 0-10-4-10-10s4-10 10-10h279c6 0 10 5 10 10z m0-62c0 6-4 10-10 10h-279c-6 0-10-4-10-10s4-10 10-10h279c6 0 10 5 10 10z m0-62c0 6-4 10-10 10h-279c-6 0-10-4-10-10s4-10 10-10h279c6 0 10 5 10 10z m0-62c0 6-4 10-10 10h-279c-6 0-10-4-10-10s4-10 10-10h279c6 0 10 5 10 10z m372 248c0 6-4 10-10 10h-279c-6 0-10-4-10-10s4-10 10-10h279c6 0 10 5 10 10z m0-62c0 6-4 10-10 10h-279c-6 0-10-4-10-10s4-10 10-10h279c6 0 10 5 10 10z m0-62c0 6-4 10-10 10h-279c-6 0-10-4-10-10s4-10 10-10h279c6 0 10 5 10 10z m0-62c0 6-4 10-10 10h-279c-6 0-10-4-10-10s4-10 10-10h279c6 0 10 5 10 10z m-62-62c0 6-4 10-10 10h-217c-6 0-10-4-10-10s4-10 10-10h217c6 0 10 5 10 10z" horiz-adv-x="1000" />
<glyph glyph-name="instagram" unicode="&#xe812;" d="m790 420h20v-332c0-14-6-25-15-35-9-9-22-13-35-13h-540c-14 0-26 4-35 13-9 9-14 20-14 35v332h20v-332c0-9 3-15 8-20 6-6 12-7 21-7h540c8 0 15 2 21 7 6 6 10 12 10 20v332z m-427-202c-38 37-58 83-58 135s19 98 58 135c38 37 85 56 138 56 54 0 101-19 139-56 38-37 58-83 58-135s-19-98-58-135c-38-37-85-56-139-56-54 0-101 19-138 56z m-38 135c0-47 17-88 52-121 33-33 75-50 124-50 49 0 91 17 125 50 34 33 52 74 52 121 0 47-17 88-52 121-34 33-76 50-125 50-48 0-90-17-124-50-34-33-52-74-52-121z m635 326v-655c0-38-13-70-39-95-25-26-56-39-93-39h-656c-35 0-67 13-93 38-26 27-39 59-39 95v655c0 37 13 67 39 93 25 27 56 39 93 39h656c37 0 68-12 93-38 27-25 39-57 39-93z m-20 0c0 31-10 57-32 79l0 0c-22 22-48 32-79 32h-657c-31 0-58-10-79-32-22-23-33-48-33-80v-655c0-31 11-58 33-80 23-22 49-33 79-33h655c31 0 58 12 79 34 22 21 33 49 33 81v654z m-107 5c10-10 17-22 17-37v-81c0-14-6-29-17-39s-24-17-38-17h-85c-14 0-25 7-36 17-10 10-14 25-14 39v81c0 14 4 26 14 37 10 10 21 16 36 16h85c14 0 28-5 38-16z m-3-36c0 9-4 16-11 22-6 6-15 10-24 10h-85c-9 0-15-3-21-10-6-6-8-14-8-22v-81c0-9 2-19 8-25 6-6 12-12 21-12h85c9 0 18 5 24 12 6 6 11 16 11 25v81z" horiz-adv-x="1000" />
<glyph glyph-name="logo-fotografica-chico" unicode="&#xe813;" d="m303-100h-253l47 236v664h684v-252h-216v-216h-252v252h216v45h-261v-342h297v-171h-219l-43-216z m-209 36h179l43 216h213v99h-297v414h333v-81h180v180h-612l0-634-39-194z m255 432h180v180h-180v-180z m371-19h132v-32h-95v-56h90v-31h-90v-86h-37v205z m158-102c0 16 3 31 8 44 5 13 13 24 23 34 10 9 21 16 35 21 13 5 28 7 44 7 16 0 31-2 44-7 13-5 25-12 35-21 10-9 17-20 23-34 5-13 8-28 8-44 0-16-3-30-8-44-5-13-13-24-23-34-10-10-21-17-35-22-13-5-28-8-44-8-16 0-30 3-44 8-14 6-25 13-35 23-10 9-17 21-23 34-5 13-8 27-8 43z m40 0c0-11 2-21 5-30 3-9 8-17 14-24 6-7 14-12 22-16 9-4 18-6 28-6 10 0 20 2 28 6 9 4 16 9 22 16 6 7 11 15 14 24 3 9 5 19 5 30 0 11-2 20-5 29-3 9-8 17-14 24-6 7-14 12-22 16-9 4-18 6-29 6-11 0-20-2-29-6-9-4-16-9-22-16-6-7-11-15-14-24-2-8-3-18-3-29z m250 70h-63v32h161v-32h-63v-172h-36v172z m107-70c0 16 3 31 8 44 5 13 13 24 23 34 10 9 21 16 35 21 13 5 28 7 44 7 16 0 31-2 44-7 13-5 25-12 35-21 10-9 17-20 23-34 5-13 8-28 8-44 0-16-3-30-8-44-5-13-13-24-23-34-10-10-21-17-35-22-13-5-28-8-44-8-16 0-30 3-44 8-13 5-25 13-35 22-10 9-17 21-23 34-6 14-8 28-8 44z m39 0c0-11 2-21 5-30 3-9 8-17 14-24 6-7 14-12 22-16 9-4 18-6 28-6 10 0 20 2 29 6s16 9 22 16c6 7 11 15 14 24 3 9 5 19 5 30 0 11-2 20-5 29-3 9-8 17-14 24-6 7-14 12-22 16-9 4-18 6-29 6-11 0-20-2-29-6-9-4-16-9-22-16-6-7-11-15-14-24-2-8-4-18-4-29z m396-91c-10-5-22-9-34-12-12-3-27-4-43-4-17 0-32 3-45 8-14 5-25 13-35 22-10 9-17 21-23 34-5 13-8 28-8 44 0 16 3 31 9 44 6 13 13 24 23 34 10 9 22 16 35 21 13 5 28 7 44 7 16 0 31-2 45-7 14-5 24-11 33-19l-25-27c-5 6-12 11-22 15-9 4-19 6-30 6-11 0-20-2-29-6-9-4-16-9-22-16-6-7-11-15-14-24-3-9-5-19-5-29 0-11 2-21 5-30 3-9 8-17 14-24 6-7 14-12 23-16 9-4 19-6 30-6 16 0 29 2 41 7v52h-43v30h78v-104z m47 193h71c10 0 19-1 28-3s17-5 24-10c7-5 13-11 17-18 4-8 6-17 6-27 0-15-4-27-13-36-8-9-20-16-34-19l54-90h-44l-47 86h-26v-86h-36v203z m66-88c5 0 10 0 16 1 5 1 10 2 14 4 4 2 8 5 10 9 3 4 4 9 4 15 0 6-1 10-4 14-2 4-6 6-9 9-4 2-8 4-13 4-5 1-10 1-14 1h-33v-57h29z m182 88h31l88-204h-41l-19 47h-88l-18-47h-41l88 204z m46-126l-31 83-32-83h63z m-17 183h39l-41-41h-27l29 41z m114-57h132v-32h-95v-56h90v-31h-90v-86h-36v205z m168 0h36v-204h-36v204z m231-48c-5 7-12 13-21 16-9 3-17 5-25 5-11 0-20-2-29-6-9-4-16-9-22-16-6-7-11-15-14-24-3-9-5-19-5-29 0-11 2-21 5-31 3-9 8-17 14-24 6-7 13-12 22-15 8-4 18-5 28-5 11 0 21 2 29 6 8 4 15 10 20 17l29-20c-9-11-20-20-33-26-13-6-28-9-46-9-16 0-31 3-44 8-13 5-25 13-34 22-10 9-17 21-22 34-5 13-8 28-8 44 0 16 3 31 8 44 6 13 13 24 23 34 10 9 22 16 35 21 13 5 28 7 44 7 7 0 13-1 20-2s14-3 20-6c7-3 13-6 18-10 6-4 11-8 15-14l-27-21z m116 48h31l88-204h-41l-19 47h-88l-18-47h-41l88 204z m46-126l-31 83-32-83h63z" horiz-adv-x="2820" />
</font>
</defs>
</svg>
